<?xml version="1.0" standalone="no"?>
<!DOCTYPE svg PUBLIC "-//W3C//DTD SVG 20010904//EN"
 "http://www.w3.org/TR/2001/REC-SVG-20010904/DTD/svg10.dtd">
<svg version="1.0" xmlns="http://www.w3.org/2000/svg"
 width="512.000000pt" height="512.000000pt" viewBox="0 0 512.000000 512.000000"
 preserveAspectRatio="xMidYMid meet">

<g transform="translate(0.000000,512.000000) scale(0.100000,-0.100000)"
fill="#000000" stroke="none">
<path d="M2134 4306 c-87 -17 -178 -48 -267 -93 -79 -39 -100 -69 -76 -111 22
-40 56 -39 151 7 132 64 219 83 378 84 380 0 734 -164 909 -422 150 -221 218
-527 191 -856 -15 -183 -11 -175 -88 -231 -37 -27 -130 -111 -208 -186 -78
-76 -147 -138 -155 -138 -7 0 -52 23 -100 50 -75 43 -91 49 -113 40 -14 -5
-31 -20 -37 -33 -18 -39 10 -76 93 -127 l74 -44 -75 -96 c-155 -198 -309 -456
-377 -630 -21 -55 -45 -100 -52 -100 -16 0 -87 44 -136 87 -44 36 -70 41 -104
17 -15 -10 -22 -25 -22 -49 0 -28 9 -41 53 -80 28 -25 82 -60 118 -78 l66 -32
-4 -70 c-5 -66 5 -115 41 -196 5 -12 -16 -26 -102 -67 -121 -56 -258 -100
-402 -128 -145 -27 -422 -25 -555 5 -393 89 -632 306 -700 635 -60 293 -34
555 76 784 45 92 118 204 260 394 142 191 185 268 244 441 94 272 164 427 264
583 28 43 51 87 51 97 0 47 -50 79 -89 57 -40 -21 -193 -293 -262 -468 -17
-42 -53 -142 -80 -221 -56 -166 -88 -224 -235 -422 -307 -413 -384 -603 -384
-947 0 -388 107 -651 341 -836 394 -311 1026 -337 1577 -65 l123 61 98 -65
c249 -166 473 -274 676 -328 101 -27 349 -37 480 -20 176 23 359 106 557 251
148 109 248 297 310 584 18 82 22 135 22 286 l1 185 -38 99 c-129 342 -332
643 -585 869 -48 43 -105 88 -127 100 -74 39 -200 24 -325 -38 l-45 -23 -1
227 c0 196 -3 240 -23 331 -108 504 -407 801 -916 910 -128 27 -368 36 -471
16z m1746 -1553 c20 -25 22 -37 18 -118 -6 -111 -35 -201 -122 -380 -273 -555
-904 -1181 -1199 -1187 -68 -2 -90 22 -95 104 -12 196 179 585 464 943 116
146 366 395 484 482 162 121 290 182 377 183 44 0 55 -4 73 -27z m321 -326
c129 -167 235 -358 310 -562 31 -86 33 -96 33 -225 -1 -277 -90 -573 -215
-714 -50 -57 -216 -169 -325 -221 -125 -60 -223 -78 -414 -78 -232 0 -344 29
-592 154 -93 47 -271 150 -291 168 -4 4 39 31 95 59 487 245 1106 1026 1214
1531 l18 84 49 -54 c27 -30 80 -94 118 -142z"/>
<path d="M4132 1764 c-7 -3 -21 -23 -32 -44 -11 -21 -38 -59 -60 -85 -22 -26
-40 -57 -40 -70 0 -26 42 -65 70 -65 25 0 105 90 137 154 l27 56 -20 27 c-20
27 -55 38 -82 27z"/>
<path d="M3235 1114 c-11 -9 -47 -31 -80 -51 -33 -19 -63 -40 -67 -47 -14 -21
-8 -63 10 -79 35 -32 74 -20 185 55 50 34 57 43 57 72 0 58 -59 86 -105 50z"/>
<path d="M3828 1006 c-45 -42 -78 -81 -78 -92 0 -35 29 -64 64 -64 26 0 46 13
106 68 61 57 73 73 73 99 0 42 -19 63 -57 63 -25 0 -47 -15 -108 -74z"/>
<path d="M1611 4024 c-42 -38 -51 -67 -31 -105 7 -13 21 -19 44 -19 27 0 41 8
70 40 41 45 44 59 19 88 -33 37 -58 36 -102 -4z"/>
<path d="M2254 4014 c-29 -43 -10 -72 80 -126 93 -56 136 -62 162 -23 22 34
11 72 -27 93 -17 9 -56 32 -86 50 -68 40 -106 42 -129 6z"/>
<path d="M2867 3422 c-22 -24 -22 -65 1 -84 24 -22 189 -103 239 -118 37 -11
45 -11 68 4 36 23 33 84 -5 103 -146 72 -241 113 -262 113 -14 0 -32 -8 -41
-18z"/>
<path d="M1631 3344 c-12 -15 -21 -33 -21 -42 0 -24 61 -74 135 -111 63 -31
70 -33 93 -20 73 41 56 82 -58 147 -50 29 -99 52 -110 52 -10 0 -28 -12 -39
-26z"/>
<path d="M1480 2530 c-11 -11 -20 -33 -20 -50 0 -24 9 -37 48 -65 62 -45 163
-95 194 -95 54 0 79 74 36 105 -56 39 -209 125 -223 125 -8 0 -24 -9 -35 -20z"/>
<path d="M802 1943 c-37 -32 -33 -71 15 -124 47 -52 114 -91 149 -87 35 4 69
48 59 77 -4 12 -25 33 -47 47 -22 14 -58 44 -79 65 -42 43 -66 48 -97 22z"/>
<path d="M1247 1202 c-44 -49 -3 -114 117 -186 75 -45 127 -49 152 -10 27 40
9 72 -59 111 -32 18 -77 48 -99 68 -46 39 -86 45 -111 17z"/>
</g>
</svg>
